# xmcd
#
# Track frame offsets:
# 150
# 16287
# 32971
# 49771
# 61430
# 78685
# 93497
# 109384
# 127361
# 142995
#
# Disc length: 2117 seconds
#
#
# Revision: 2
# Processed by: cddbd v1.4PL0 Copyright (c) Steve Scherf et al.
# Submitted via: FreeRIP 2.00 
#
DISCID=9208430a
DTITLE=Arsenal - Armored Choir
DYEAR=1990
DGENRE=Blues
TTITLE0=Turn Around
TTITLE1=Someone Believes In You
TTITLE2=Armored Choir
TTITLE3=Coming Back To You
TTITLE4=Forever Yours
TTITLE5=The Valley
TTITLE6=You're No Good For Me
TTITLE7=Bishop Of Souls
TTITLE8=Take It Away
TTITLE9=The Candle...The Flame
EXTD=featuring Christine Steel
EXTT0=
EXTT1=
EXTT2=
EXTT3=
EXTT4=
EXTT5=
EXTT6=
EXTT7=
EXTT8=
EXTT9=
PLAYORDER=
